<svg xmlns="http://www.w3.org/2000/svg" width="92.111" height="46.103" viewBox="0 0 92.111 46.103">
  <g id="Group_5673" data-name="Group 5673" transform="translate(19117.582 8946.063)">
    <path id="Path_2264" data-name="Path 2264" d="M429.5,513.377l-10.356-10.345h-.024L408.7,513.45l20.776-.05.023-.023" transform="translate(-19509.131 -9435.268)" fill="#d7df21"/>
    <path id="Path_2265" data-name="Path 2265" d="M411.168,493.937l-13.751,13.751,10.362,10.362,13.757-13.755-10.368-10.358" transform="translate(-19515 -9440)" fill="#d7df21"/>
    <path id="Path_2266" data-name="Path 2266" d="M406.462,493.937l20.73,0,13.818,13.818-10.35,10.35-24.2-24.172" transform="translate(-19510.297 -9440)" fill="#71bf44"/>
    <path id="Path_2267" data-name="Path 2267" d="M397.417,502.982v20.726l11.619,11.619,20.73,0-32.35-32.35" transform="translate(-19515 -9435.295)" fill="#71bf44"/>
    <path id="Path_2268" data-name="Path 2268" d="M451.976,503.03,429.97,524.963l10.342,10.344h0l32.277-32.277H451.976" transform="translate(-19498.064 -9435.27)" fill="#d7df21"/>
    <path id="Path_2269" data-name="Path 2269" d="M432.679,513.073H411.953l17.009,17.009,20.729,0-17.012-17.012" transform="translate(-19507.438 -9430.045)" fill="#71bf44"/>
  </g>
</svg>
