<svg xmlns="http://www.w3.org/2000/svg" width="327.066" height="163.701" viewBox="0 0 327.066 163.701">
  <g id="Group_5675" data-name="Group 5675" transform="translate(19117.584 8946.064)" opacity="0.1">
    <path id="Path_2264" data-name="Path 2264" d="M482.549,539.766l-36.772-36.734h-.086L408.7,540.025l73.77-.178.081-.081" transform="translate(-19465.389 -9399.997)" fill="#d7df21"/>
    <path id="Path_2265" data-name="Path 2265" d="M446.243,493.937l-48.825,48.825,36.793,36.793,48.847-48.842-36.815-36.777" transform="translate(-19515.002 -9440.001)" fill="#d7df21"/>
    <path id="Path_2266" data-name="Path 2266" d="M406.462,493.937l73.608.016,49.063,49.063-36.75,36.75-85.921-85.829" transform="translate(-19475.229 -9440.001)" fill="#71bf44"/>
    <path id="Path_2267" data-name="Path 2267" d="M397.417,502.982v73.592l41.257,41.257,73.608.016L397.417,502.982" transform="translate(-19515.002 -9400.222)" fill="#71bf44"/>
    <path id="Path_2268" data-name="Path 2268" d="M508.107,503.03,429.97,580.908l36.723,36.728h.016L581.316,503.03H508.107" transform="translate(-19371.834 -9400.011)" fill="#d7df21"/>
    <path id="Path_2269" data-name="Path 2269" d="M485.545,513.073H411.953l60.394,60.393,73.6.011-60.4-60.4" transform="translate(-19451.072 -9355.841)" fill="#71bf44"/>
  </g>
</svg>
